# xmcd
#
# Track frame offsets:
#	150
#	18823
#	38703
#	56403
#	74990
#	92360
#	107695
#	124270
#
# Disc length: 1883 seconds
#
# Revision: 1
# Processed by: cddbd v1.5.2PL0 Copyright (c) Steve Scherf et al.
# Submitted via: EasyCDDAExtractor 15.3.0.1
#
DISCID=64075908
DTITLE=Ednita Nazario - Retrato De Mujer
DYEAR=1979
DGENRE=Latin
TTITLE0=En Mi Mente... En Mi Cuerpo
TTITLE1=No Me Dejes... No (Give A Little Bit)
TTITLE2=Cuando Tu Me Querias
TTITLE3=Retrato De Mujer (Ritratto Di Donna)
TTITLE4=A Donde Fueron Los Sueños
TTITLE5=Enamorada De Ti
TTITLE6=Dame Mas De Ti
TTITLE7=Tomame
EXTD=
EXTT0=
EXTT1=
EXTT2=
EXTT3=
EXTT4=
EXTT5=
EXTT6=
EXTT7=
PLAYORDER=
